<?xml version="1.0" encoding="UTF-8"?>
<svg width="16px" height="16px" viewBox="0 0 16 16" version="1.1" xmlns="http://www.w3.org/2000/svg" xmlns:xlink="http://www.w3.org/1999/xlink">
    <!-- Generator: Sketch 52.6 (67491) - http://www.bohemiancoding.com/sketch -->
    <title>icon/normal/添加推广小组@1x</title>
    <desc>Created with Sketch.</desc>
    <g id="-" stroke="none" stroke-width="1" fill="none" fill-rule="evenodd">
        <g id="推广人员设置" transform="translate(-560.000000, -119.000000)" fill="#888888">
            <g id="icon/normal/添加推广小组" transform="translate(560.000000, 119.000000)">
                <g>
                    <path d="M8,16 C3.589,16 0,12.411 0,8 C0,3.589 3.589,0 8,0 C12.411,0 16,3.589 16,8 C16,9.694 15.477,11.313 14.487,12.683 C14.271,12.981 13.854,13.048 13.556,12.833 C13.258,12.617 13.19,12.2 13.406,11.901 C14.23,10.762 14.667,9.412 14.667,8 C14.667,4.324 11.676,1.333 8,1.333 C4.324,1.333 1.333,4.324 1.333,8 C1.333,11.676 4.324,14.667 8,14.667 C9.403,14.667 10.745,14.236 11.88,13.422 C12.18,13.207 12.596,13.276 12.811,13.575 C13.024,13.874 12.956,14.291 12.657,14.505 C11.294,15.483 9.684,16 8,16" id="Fill-1"></path>
                    <path d="M11.667,8.667 L4.333,8.667 C3.965,8.667 3.667,8.368 3.667,8 C3.667,7.632 3.965,7.333 4.333,7.333 L11.667,7.333 C12.035,7.333 12.333,7.632 12.333,8 C12.333,8.368 12.035,8.667 11.667,8.667" id="Fill-3"></path>
                    <path d="M8,12.333 C7.632,12.333 7.333,12.035 7.333,11.667 L7.333,4.333 C7.333,3.965 7.632,3.667 8,3.667 C8.368,3.667 8.667,3.965 8.667,4.333 L8.667,11.667 C8.667,12.035 8.368,12.333 8,12.333" id="Fill-5"></path>
                </g>
            </g>
        </g>
    </g>
</svg>