<?xml version="1.0" encoding="UTF-8"?>
<svg width="16px" height="16px" viewBox="0 0 16 16" version="1.1" xmlns="http://www.w3.org/2000/svg" xmlns:xlink="http://www.w3.org/1999/xlink">
    <!-- Generator: Sketch 52.6 (67491) - http://www.bohemiancoding.com/sketch -->
    <title>icon/normal/下载</title>
    <desc>Created with Sketch.</desc>
    <g id="icon/normal/下载" stroke="none" stroke-width="1" fill="none" fill-rule="evenodd">
        <rect id="Rectangle-4" fill="#FFFFFF" opacity="0.00999999978" x="0" y="0" width="16" height="16"></rect>
        <g transform="translate(1.000000, 1.000000)" fill="#597EF7">
            <path d="M13,10 C12.447,10 12,10.447 12,11 L12,12 L2,12 L2,11 C2,10.447 1.553,10 1,10 C0.447,10 0,10.447 0,11 L0,13 C0,13.553 0.447,14 1,14 L13,14 C13.553,14 14,13.553 14,13 L14,11 C14,10.447 13.553,10 13,10" id="Fill-1"></path>
            <path d="M6.293,10.707 C6.488,10.902 6.744,11 7,11 C7.256,11 7.512,10.902 7.707,10.707 L11.707,6.707 C12.098,6.316 12.098,5.684 11.707,5.293 C11.316,4.902 10.684,4.902 10.293,5.293 L8,7.586 L8,1 C8,0.447 7.553,0 7,0 C6.447,0 6,0.447 6,1 L6,7.586 L3.707,5.293 C3.316,4.902 2.684,4.902 2.293,5.293 C1.902,5.684 1.902,6.316 2.293,6.707 L6.293,10.707 Z" id="Fill-3"></path>
        </g>
    </g>
</svg>