<?xml version="1.0" encoding="UTF-8"?>
<svg width="16px" height="16px" viewBox="0 0 16 16" version="1.1" xmlns="http://www.w3.org/2000/svg" xmlns:xlink="http://www.w3.org/1999/xlink">
    <!-- Generator: Sketch 52.6 (67491) - http://www.bohemiancoding.com/sketch -->
    <title>icon/normal/edit@2x</title>
    <desc>Created with Sketch.</desc>
    <g id="-" stroke="none" stroke-width="1" fill="none" fill-rule="evenodd">
        <g id="推广人员设置" transform="translate(-528.000000, -191.000000)">
            <g id="icon/normal/edit" transform="translate(528.000000, 191.000000)">
                <polygon id="Fill-1" fill="#FFFFFF" opacity="0.01" points="0 16 16 16 16 0 0 0"></polygon>
                <g id="编辑/填写" stroke-width="1" transform="translate(0.666667, 0.666667)" fill="#597EF7">
                    <path d="M7.33333333,8 C7.16266667,8 6.99233333,7.935 6.862,7.80466667 C6.60166667,7.54433333 6.60166667,7.12233333 6.862,6.862 L13.5286667,0.195333333 C13.789,-0.065 14.211,-0.065 14.4713333,0.195333333 C14.7316667,0.455666667 14.7316667,0.877666667 14.4713333,1.138 L7.80466667,7.80466667 C7.67433333,7.935 7.504,8 7.33333333,8" id="Fill-2"></path>
                    <path d="M14,14.6666667 L0.666666667,14.6666667 C0.298666667,14.6666667 0,14.368 0,14 L0,0.666666667 C0,0.298666667 0.298666667,0 0.666666667,0 L9.33333333,0 C9.70133333,0 10,0.298666667 10,0.666666667 C10,1.03466667 9.70133333,1.33333333 9.33333333,1.33333333 L1.33333333,1.33333333 L1.33333333,13.3333333 L13.3333333,13.3333333 L13.3333333,5.33333333 C13.3333333,4.96533333 13.632,4.66666667 14,4.66666667 C14.368,4.66666667 14.6666667,4.96533333 14.6666667,5.33333333 L14.6666667,14 C14.6666667,14.368 14.368,14.6666667 14,14.6666667" id="Fill-4"></path>
                </g>
            </g>
        </g>
    </g>
</svg>