<?xml version="1.0" encoding="UTF-8"?>
<svg width="16px" height="16px" viewBox="0 0 16 16" version="1.1" xmlns="http://www.w3.org/2000/svg" xmlns:xlink="http://www.w3.org/1999/xlink">
    <!-- Generator: Sketch 52.6 (67491) - http://www.bohemiancoding.com/sketch -->
    <title>icon/normal/delete@2x</title>
    <desc>Created with Sketch.</desc>
    <g id="-" stroke="none" stroke-width="1" fill="none" fill-rule="evenodd">
        <g id="推广人员设置" transform="translate(-560.000000, -191.000000)">
            <g id="icon/normal/delete" transform="translate(560.000000, 191.000000)">
                <polygon id="Fill-1" fill="#FFFFFF" opacity="0.01" points="0 16 16 16 16 0 0 0"></polygon>
                <g id="删除" stroke-width="1" transform="translate(0.666667, 0.666667)" fill="#597EF7">
                    <path d="M12.3333333,14.6666667 L2.33333333,14.6666667 C1.96533333,14.6666667 1.66666667,14.368 1.66666667,14 L1.66666667,5 C1.66666667,4.632 1.96533333,4.33333333 2.33333333,4.33333333 C2.70133333,4.33333333 3,4.632 3,5 L3,13.3333333 L11.6666667,13.3333333 L11.6666667,5 C11.6666667,4.632 11.9653333,4.33333333 12.3333333,4.33333333 C12.7013333,4.33333333 13,4.632 13,5 L13,14 C13,14.368 12.7013333,14.6666667 12.3333333,14.6666667" id="Fill-2"></path>
                    <path d="M5.66666667,11.3333333 C5.29866667,11.3333333 5,11.0346667 5,10.6666667 L5,5 C5,4.632 5.29866667,4.33333333 5.66666667,4.33333333 C6.03466667,4.33333333 6.33333333,4.632 6.33333333,5 L6.33333333,10.6666667 C6.33333333,11.0346667 6.03466667,11.3333333 5.66666667,11.3333333" id="Fill-4"></path>
                    <path d="M9,11.3333333 C8.632,11.3333333 8.33333333,11.0346667 8.33333333,10.6666667 L8.33333333,5 C8.33333333,4.632 8.632,4.33333333 9,4.33333333 C9.368,4.33333333 9.66666667,4.632 9.66666667,5 L9.66666667,10.6666667 C9.66666667,11.0346667 9.368,11.3333333 9,11.3333333" id="Fill-6"></path>
                    <path d="M14,3.33333333 L11,3.33333333 C10.8233333,3.33333333 10.6536667,3.263 10.5286667,3.138 L8.724,1.33333333 L5.94266667,1.33333333 L4.138,3.138 C4.013,3.263 3.84333333,3.33333333 3.66666667,3.33333333 L0.666666667,3.33333333 C0.298666667,3.33333333 0,3.03466667 0,2.66666667 C0,2.29866667 0.298666667,2 0.666666667,2 L3.39066667,2 L5.19533333,0.195333333 C5.32033333,0.0703333333 5.49,0 5.66666667,0 L9,0 C9.17666667,0 9.34633333,0.0703333333 9.47133333,0.195333333 L11.276,2 L14,2 C14.368,2 14.6666667,2.29866667 14.6666667,2.66666667 C14.6666667,3.03466667 14.368,3.33333333 14,3.33333333" id="Fill-8"></path>
                </g>
            </g>
        </g>
    </g>
</svg>