    <?xml version="1.0" encoding="UTF-8"?>
<svg width="40px" height="40px" viewBox="0 0 40 40" version="1.1" xmlns="http://www.w3.org/2000/svg" xmlns:xlink="http://www.w3.org/1999/xlink">
    <!-- Generator: Sketch 52.6 (67491) - http://www.bohemiancoding.com/sketch -->
    <title>icon/normal/loading 渐变蓝 40@2x</title>
    <desc>Created with Sketch.</desc>
    <g id="Page-1" stroke="none" stroke-width="1" fill="none" fill-rule="evenodd">
        <g id="风格2_工作平台_加载动效页" transform="translate(-168.000000, -295.000000)" fill="#597EF7">
            <g id="icon/normal/loading-渐变蓝-24px" transform="translate(168.000000, 295.000000)">
                <path d="M25,5 C25,7.76 22.76,10 20,10 C17.24,10 15,7.76 15,5 C15,2.24 17.24,0 20,0 C22.76,0 25,2.24 25,5" id="Fill-1" opacity="0.453181"></path>
                <path d="M40,20 C40,22.76 37.76,25 35,25 C32.24,25 30,22.76 30,20 C30,17.24 32.24,15 35,15 C37.76,15 40,17.24 40,20" id="Fill-3" opacity="0.654887"></path>
                <path d="M25,35 C25,37.76 22.76,40 20,40 C17.24,40 15,37.76 15,35 C15,32.24 17.24,30 20,30 C22.76,30 25,32.24 25,35" id="Fill-5" opacity="0.854594"></path>
                <path d="M10,20 C10,22.76 7.76,25 5,25 C2.24,25 0,22.76 0,20 C0,17.24 2.24,15 5,15 C7.76,15 10,17.24 10,20" id="Fill-7"></path>
            </g>
        </g>
    </g>
</svg>
