<?xml version="1.0" encoding="UTF-8"?>
<svg width="8px" height="8px" viewBox="0 0 8 8" version="1.1" xmlns="http://www.w3.org/2000/svg" xmlns:xlink="http://www.w3.org/1999/xlink">
    <!-- Generator: Sketch 52.6 (67491) - http://www.bohemiancoding.com/sketch -->
    <title>icon/normal/关闭10px 灰色</title>
    <desc>Created with Sketch.</desc>
    <g id="-" stroke="none" stroke-width="1" fill="none" fill-rule="evenodd">
        <g id="用户管理_添加用户右侧弹窗_已选用户标签" transform="translate(-1042.000000, -144.000000)" fill="#888888">
            <g id="分组-24" transform="translate(960.000000, 64.000000)">
                <g id="Group-41" transform="translate(20.000000, 68.000000)">
                    <g id="icon/normal/关闭10px-灰色" transform="translate(62.000000, 12.000000)">
                        <path d="M4.7071029,4.000125 L7.85300459,0.854223306 C8.04899847,0.65822943 8.04899847,0.342239305 7.85300459,0.14624543 C7.65801069,-0.0487484766 7.34202056,-0.0487484766 7.14602669,0.14624543 L4.000125,3.29314709 L0.853223337,0.14624543 C0.65822943,-0.0487484766 0.342239305,-0.0487484766 0.14624543,0.14624543 C-0.0487484766,0.342239305 -0.0487484766,0.65822943 0.14624543,0.854223306 L3.29314709,4.000125 L0.14624543,7.14602669 C-0.0487484766,7.34202056 -0.0487484766,7.65801069 0.14624543,7.85400456 C0.244242367,7.95100153 0.372238368,8 0.500234368,8 C0.628230368,8 0.756226368,7.95100153 0.853223337,7.85400456 L4.000125,4.7071029 L7.14602669,7.85400456 C7.24402362,7.95100153 7.37201962,8 7.50001562,8 C7.62801162,8 7.75600762,7.95100153 7.85300459,7.85400456 C8.04899847,7.65801069 8.04899847,7.34202056 7.85300459,7.14602669 L4.7071029,4.000125 Z" id="Fill-1"></path>
                    </g>
                </g>
            </g>
        </g>
    </g>
</svg>