<?xml version="1.0" encoding="UTF-8"?>
<svg width="20px" height="20px" viewBox="0 0 20 20" version="1.1" xmlns="http://www.w3.org/2000/svg" xmlns:xlink="http://www.w3.org/1999/xlink">
    <!-- Generator: Sketch 49 (51002) - http://www.bohemiancoding.com/sketch -->
    <title>组织架构icon</title>
    <desc>Created with Sketch.</desc>
    <defs>
        <rect id="path-1" x="0" y="0" width="240" height="590" rx="4"></rect>
    </defs>
    <g id="Page-1" stroke="none" stroke-width="1" fill="#555" fill-rule="evenodd">
        <g id="系统集成设置" transform="translate(-30.000000, -165.000000)">
            <rect id="Rectangle" fill="#F2F2F6" x="0" y="0" width="1240" height="700"></rect>
            <g id="Bitmap" transform="translate(20.000000, 90.000000)">
                <mask id="mask-2" fill="red">
                    <use xlink:href="#path-1"></use>
                </mask>
                <use id="Mask" fill="#e7ebfc" xlink:href="#path-1"></use>
            </g>
            <g id="组织架构icon" transform="translate(30.000000, 165.000000)" fill="#4990e2">
                <g>
                    <path d="M7,4 C7,2.346 8.346,1 10,1 C11.654,1 13,2.346 13,4 C13,5.654 11.654,7 10,7 C8.346,7 7,5.654 7,4 M7,16 C7,17.654 5.654,19 4,19 C2.346,19 1,17.654 1,16 C1,14.346 2.346,13 4,13 C5.654,13 7,14.346 7,16 M14,4 C14,1.794 12.206,0 10,0 C7.794,0 6,1.794 6,4 C6,6.035 7.532,7.7 9.5,7.949 L9.5,9.5 L5,9.5 C4.173,9.5 3.5,10.173 3.5,11 L3.5,12.051 C1.532,12.3 0,13.965 0,16 C0,18.206 1.794,20 4,20 C6.206,20 8,18.206 8,16 C8,13.965 6.468,12.3 4.5,12.051 L4.5,11 C4.5,10.725 4.725,10.5 5,10.5 L10,10.5 C10.276,10.5 10.5,10.276 10.5,10 L10.5,7.949 C12.468,7.7 14,6.035 14,4" id="Fill-1"></path>
                    <path d="M16,19 C14.346,19 13,17.654 13,16 C13,14.346 14.346,13 16,13 C17.654,13 19,14.346 19,16 C19,17.654 17.654,19 16,19 M16.5,12.051 L16.5,11 C16.5,10.173 15.827,9.5 15,9.5 L13,9.5 C12.724,9.5 12.5,9.724 12.5,10 C12.5,10.276 12.724,10.5 13,10.5 L15,10.5 C15.275,10.5 15.5,10.725 15.5,11 L15.5,12.051 C13.532,12.3 12,13.965 12,16 C12,18.206 13.794,20 16,20 C18.206,20 20,18.206 20,16 C20,13.965 18.468,12.3 16.5,12.051" id="Fill-3"></path>
                </g>
            </g>
            <g id="组织架构icon-copy" transform="translate(30.000000, 165.000000)" fill="#4990e2">
                <g id="组织架构icon">
                    <path d="M7,4 C7,2.346 8.346,1 10,1 C11.654,1 13,2.346 13,4 C13,5.654 11.654,7 10,7 C8.346,7 7,5.654 7,4 M7,16 C7,17.654 5.654,19 4,19 C2.346,19 1,17.654 1,16 C1,14.346 2.346,13 4,13 C5.654,13 7,14.346 7,16 M14,4 C14,1.794 12.206,0 10,0 C7.794,0 6,1.794 6,4 C6,6.035 7.532,7.7 9.5,7.949 L9.5,9.5 L5,9.5 C4.173,9.5 3.5,10.173 3.5,11 L3.5,12.051 C1.532,12.3 0,13.965 0,16 C0,18.206 1.794,20 4,20 C6.206,20 8,18.206 8,16 C8,13.965 6.468,12.3 4.5,12.051 L4.5,11 C4.5,10.725 4.725,10.5 5,10.5 L10,10.5 C10.276,10.5 10.5,10.276 10.5,10 L10.5,7.949 C12.468,7.7 14,6.035 14,4" id="Fill-1"></path>
                    <path d="M16,19 C14.346,19 13,17.654 13,16 C13,14.346 14.346,13 16,13 C17.654,13 19,14.346 19,16 C19,17.654 17.654,19 16,19 M16.5,12.051 L16.5,11 C16.5,10.173 15.827,9.5 15,9.5 L13,9.5 C12.724,9.5 12.5,9.724 12.5,10 C12.5,10.276 12.724,10.5 13,10.5 L15,10.5 C15.275,10.5 15.5,10.725 15.5,11 L15.5,12.051 C13.532,12.3 12,13.965 12,16 C12,18.206 13.794,20 16,20 C18.206,20 20,18.206 20,16 C20,13.965 18.468,12.3 16.5,12.051" id="Fill-3"></path>
                </g>
            </g>
        </g>
    </g>
</svg>