<?xml version="1.0" encoding="UTF-8"?>
<svg width="16px" height="16px" viewBox="0 0 16 16" version="1.1" xmlns="http://www.w3.org/2000/svg" xmlns:xlink="http://www.w3.org/1999/xlink">
    <!-- Generator: Sketch 52.6 (67491) - http://www.bohemiancoding.com/sketch -->
    <title>icon/normal/组长</title>
    <desc>Created with Sketch.</desc>
    <g id="-" stroke="none" stroke-width="1" fill="none" fill-rule="evenodd">
        <g id="推广人员设置" transform="translate(-648.000000, -223.000000)">
            <g id="icon/normal/组长" transform="translate(648.000000, 223.000000)">
                <rect id="矩形" fill="#FFFFFF" opacity="0.01" x="0" y="0" width="16" height="16"></rect>
                <path d="M8.72259083,11.9394 C8.75759083,11.8704 8.76059083,11.7974 8.73159083,11.7224 C8.70259083,11.6474 8.65859083,11.5754 8.60059083,11.5054 C8.54259083,11.4364 8.47259083,11.3614 8.39059083,11.2804 L7.58859083,11.2804 C7.50659083,11.3614 7.44259083,11.4364 7.39659083,11.5054 C7.34959083,11.5634 7.31159083,11.6274 7.28259083,11.6964 C7.25359083,11.7654 7.25659083,11.8294 7.29159083,11.8874 C7.37259083,12.0484 7.44259083,12.1914 7.50059083,12.3124 C7.55859083,12.4334 7.62259083,12.5294 7.69259083,12.5984 C7.66959083,12.7034 7.63459083,12.8504 7.58859083,13.0414 C7.54159083,13.2324 7.49759083,13.4284 7.45759083,13.6304 C7.41659083,13.8344 7.38159083,14.0244 7.35259083,14.2044 C7.32359083,14.3834 7.30859083,14.5194 7.30859083,14.6114 C7.30859083,14.6694 7.33559083,14.7394 7.38759083,14.8204 C7.43959083,14.9014 7.50059083,14.9854 7.57059083,15.0714 C7.64059083,15.1584 7.71359083,15.2304 7.78859083,15.2894 C7.86459083,15.3464 7.93159083,15.3754 7.98959083,15.3754 C8.04759083,15.3754 8.11759083,15.3464 8.19959083,15.2894 C8.28059083,15.2304 8.35959083,15.1644 8.43459083,15.0884 C8.51059083,15.0134 8.57459083,14.9324 8.62659083,14.8454 C8.67959083,14.7594 8.70559083,14.6864 8.70559083,14.6284 C8.70559083,14.5594 8.68759083,14.4414 8.65259083,14.2734 C8.61859083,14.1054 8.57959083,13.9184 8.53959083,13.7094 C8.49859083,13.5014 8.45459083,13.2984 8.40859083,13.1014 C8.36259083,12.9054 8.32159083,12.7494 8.28659083,12.6334 C8.35659083,12.5754 8.42359083,12.4924 8.48759083,12.3814 C8.55159083,12.2724 8.62959083,12.1244 8.72259083,11.9394 M14.3255908,12.5114 C14.3715908,12.6734 14.4125908,12.8784 14.4475908,13.1274 C14.4825908,13.3764 14.5005908,13.6274 14.5005908,13.8824 C14.5005908,14.1374 14.4795908,14.3774 14.4395908,14.6034 C14.3985908,14.8294 14.3375908,14.9994 14.2555908,15.1154 C14.1975908,15.1964 14.0495908,15.2744 13.8105908,15.3494 C13.5725908,15.4244 13.2725908,15.4944 12.9115908,15.5574 C12.5515908,15.6214 12.1495908,15.6814 11.7075908,15.7404 C11.2655908,15.7974 10.8235908,15.8464 10.3805908,15.8874 C9.93859083,15.9274 9.50859083,15.9574 9.08959083,15.9734 C8.67059083,15.9914 8.30359083,16.0004 7.98959083,16.0004 C7.67559083,16.0004 7.31159083,15.9884 6.89859083,15.9654 C6.48559083,15.9424 6.06059083,15.9134 5.62459083,15.8784 C5.18859083,15.8434 4.75459083,15.8034 4.32459083,15.7564 C3.89359083,15.7104 3.50059083,15.6594 3.14559083,15.6004 C2.79059083,15.5434 2.48859083,15.4884 2.23859083,15.4364 C1.98859083,15.3834 1.83359083,15.3294 1.77559083,15.2714 C1.67159083,15.1904 1.58959083,14.9324 1.53159083,14.4994 C1.47259083,14.0654 1.49659083,13.5014 1.60059083,12.8064 C1.65959083,12.4144 1.81959083,12.1134 2.08159083,11.9044 C2.34359083,11.6964 2.64559083,11.5314 2.98859083,11.4104 C3.33159083,11.2894 3.69259083,11.1814 4.07159083,11.0884 C4.44959083,10.9964 4.77859083,10.8574 5.05659083,10.6724 C5.27859083,10.5334 5.45059083,10.4004 5.57259083,10.2734 C5.69459083,10.1464 5.78159083,10.0194 5.83359083,9.8914 C5.88659083,9.7644 5.91259083,9.6314 5.91259083,9.4924 C5.91259083,9.3534 5.90659083,9.1974 5.89459083,9.0234 C5.87159083,8.7694 5.78759083,8.5724 5.64159083,8.4344 C5.49659083,8.2944 5.33659083,8.1504 5.16159083,8.0004 C5.06859083,7.9304 4.99059083,7.8294 4.92659083,7.6964 C4.86259083,7.5634 4.80159083,7.4274 4.74359083,7.2884 C4.68459083,7.1384 4.63259083,6.9704 4.58559083,6.7854 C4.56259083,6.7624 4.52759083,6.7214 4.48159083,6.6644 C4.44659083,6.6064 4.40559083,6.5274 4.35959083,6.4294 C4.31259083,6.3314 4.26059083,6.1894 4.20159083,6.0044 C4.14359083,5.8194 4.10559083,5.6544 4.08859083,5.5094 C4.07159083,5.3654 4.07459083,5.2404 4.09759083,5.1364 C4.10859083,5.0094 4.13859083,4.8994 4.18459083,4.8074 C4.18459083,4.4014 4.20759083,3.9974 4.25459083,3.5924 C4.30059083,3.2564 4.37659083,2.8924 4.48159083,2.4994 C4.58559083,2.1054 4.75459083,1.7524 4.98759083,1.4404 C5.19659083,1.1514 5.42359083,0.9114 5.66859083,0.7204 C5.91259083,0.5294 6.16559083,0.3814 6.42759083,0.2774 C6.68959083,0.1734 6.95359083,0.1014 7.22159083,0.0604 C7.48959083,0.0204 7.74559083,0.0004 7.98959083,0.0004 C8.25759083,0.0234 8.47559083,0.0554 8.64359083,0.0954 C8.81259083,0.1364 8.94959083,0.1854 9.05459083,0.2434 C9.15959083,0.3004 9.24959083,0.3704 9.32559083,0.4514 C9.40059083,0.5324 9.47859083,0.6134 9.56059083,0.6944 L9.89159083,0.6944 C9.99659083,0.6944 10.0985908,0.7084 10.1975908,0.7374 C10.2965908,0.7664 10.3955908,0.8214 10.4945908,0.9024 C10.5935908,0.9834 10.7015908,1.0994 10.8175908,1.2494 C11.0845908,1.5964 11.2825908,1.9754 11.4105908,2.3864 C11.5385908,2.7964 11.6315908,3.1874 11.6895908,3.5574 C11.7485908,3.9854 11.7835908,4.4074 11.7945908,4.8244 C11.8185908,4.8824 11.8355908,4.9514 11.8475908,5.0324 C11.8585908,5.1134 11.8675908,5.2114 11.8735908,5.3274 C11.8795908,5.4434 11.8705908,5.5874 11.8475908,5.7614 C11.8245908,5.9924 11.7885908,6.1754 11.7425908,6.3084 C11.6955908,6.4404 11.6435908,6.5424 11.5855908,6.6114 C11.5275908,6.6924 11.4635908,6.7504 11.3935908,6.7854 C11.3465908,6.9704 11.2945908,7.1384 11.2365908,7.2884 C11.1785908,7.4274 11.1175908,7.5634 11.0535908,7.6964 C10.9885908,7.8294 10.9105908,7.9304 10.8175908,8.0004 C10.6195908,8.1624 10.4565908,8.2974 10.3285908,8.4074 C10.2005908,8.5174 10.1135908,8.7054 10.0665908,8.9714 C10.0315908,9.1334 10.0205908,9.2954 10.0315908,9.4584 C10.0435908,9.6194 10.0875908,9.7844 10.1625908,9.9524 C10.2385908,10.1204 10.3605908,10.2794 10.5295908,10.4294 C10.6985908,10.5804 10.9335908,10.7124 11.2365908,10.8294 C11.5035908,10.9324 11.7975908,11.0284 12.1175908,11.1154 C12.4375908,11.2024 12.7455908,11.2994 13.0425908,11.4104 C13.3395908,11.5194 13.6045908,11.6624 13.8365908,11.8354 C14.0695908,12.0084 14.2325908,12.2344 14.3255908,12.5114" id="Fill-1" fill="#597EF7"></path>
            </g>
        </g>
    </g>
</svg>