<?xml version="1.0" encoding="UTF-8"?>
<svg width="16px" height="16px" viewBox="0 0 16 16" version="1.1" xmlns="http://www.w3.org/2000/svg" xmlns:xlink="http://www.w3.org/1999/xlink">
    <!-- Generator: Sketch 52.6 (67491) - http://www.bohemiancoding.com/sketch -->
    <title>icon/normal/未认证</title>
    <desc>Created with Sketch.</desc>
    <g id="-" stroke="none" stroke-width="1" fill="none" fill-rule="evenodd">
        <g id="医生管理" transform="translate(-648.000000, -318.000000)">
            <g id="icon/normal/未认证" transform="translate(648.000000, 318.000000)">
                <g>
                    <path d="M15.5,8 C15.5,12.142 12.142,15.5 8,15.5 C3.858,15.5 0.5,12.142 0.5,8 C0.5,3.858 3.858,0.5 8,0.5 C12.142,0.5 15.5,3.858 15.5,8" id="Fill-1" fill="#DDDDDD"></path>
                    <path d="M8,1 C4.14,1 1,4.14 1,8 C1,11.86 4.14,15 8,15 C11.86,15 15,11.86 15,8 C15,4.14 11.86,1 8,1 M8,16 C3.589,16 0,12.411 0,8 C0,3.589 3.589,0 8,0 C12.411,0 16,3.589 16,8 C16,12.411 12.411,16 8,16" id="Fill-3" fill="#DDDDDD"></path>
                    <polygon id="V" fill="#FFFFFF" points="4.106 3.716 5.63 3.716 7.982 10.7 8.018 10.7 10.37 3.716 11.894 3.716 8.846 12.284 7.154 12.284"></polygon>
                </g>
            </g>
        </g>
    </g>
</svg>