<?xml version="1.0" encoding="UTF-8"?>
<svg width="16px" height="16px" viewBox="0 0 16 16" version="1.1" xmlns="http://www.w3.org/2000/svg" xmlns:xlink="http://www.w3.org/1999/xlink">
    <!-- Generator: Sketch 52.6 (67491) - http://www.bohemiancoding.com/sketch -->
    <title>icon/normal/info blue</title>
    <desc>Created with Sketch.</desc>
    <g id="-" stroke="none" stroke-width="1" fill="none" fill-rule="evenodd">
        <g id="组织管理_调整排序" transform="translate(-320.000000, -172.000000)">
            <g id="icon/normal/info-blue" transform="translate(320.000000, 172.000000)">
                <g>
                    <path d="M7.99625,15.99325 C5.94725,15.99325 3.89925,15.21325 2.33925,13.65325 C-0.77975,10.53425 -0.77975,5.45825 2.33925,2.33925 C5.45825,-0.77975 10.53425,-0.77975 13.65325,2.33925 C16.77225,5.45825 16.77225,10.53425 13.65325,13.65325 C12.09325,15.21325 10.04525,15.99325 7.99625,15.99325" id="Fill-1" fill="#597EF7"></path>
                    <path d="M7.9961,6.4968 C7.7201,6.4968 7.4961,6.7208 7.4961,6.9968 L7.4961,11.9968 C7.4961,12.2728 7.7201,12.4968 7.9961,12.4968 C8.2721,12.4968 8.4961,12.2728 8.4961,11.9968 L8.4961,6.9968 C8.4961,6.7208 8.2721,6.4968 7.9961,6.4968" id="Fill-4" fill="#FFFFFF"></path>
                    <path d="M7.9961,3.4968 C7.4441,3.4968 6.9961,3.9448 6.9961,4.4968 C6.9961,5.0498 7.4441,5.4968 7.9961,5.4968 C8.5481,5.4968 8.9961,5.0498 8.9961,4.4968 C8.9961,3.9448 8.5481,3.4968 7.9961,3.4968" id="Fill-6" fill="#FFFFFF"></path>
                </g>
            </g>
        </g>
    </g>
</svg>